<svg width="504" height="504" xmlns="http://www.w3.org/2000/svg">

 <g>
  <title>background</title>
  <rect fill="none" id="canvas_background" height="602" width="802" y="-1" x="-1"/>
 </g>
 <g>
  <title>Layer 1</title>
  <g id="svg_2">
   <path id="svg_3" fill="#263B80" d="m193.6,221.2l-27.2,0c-1.6,0 -3.2,1.6 -4,3.2l-11.2,70.4c0,1.6 0.8,2.4 2.4,2.4l12.8,0c1.6,0 3.2,-1.6 4,-3.2l3.2,-19.2c0,-1.6 1.6,-3.2 4,-3.2l8.8,0c18.4,0 28.8,-8.8 31.2,-26.4c1.6,-7.2 0,-13.6 -3.2,-17.6c-4.8,-4 -11.2,-6.4 -20.8,-6.4m3.2,26.4c-1.6,9.6 -8.8,9.6 -16,9.6l-4,0l3.2,-18.4c0,-0.8 0.8,-1.6 2.4,-1.6l1.6,0c4.8,0 9.6,0 12,3.2c0.8,0.8 1.6,3.2 0.8,7.2"/>
   <path id="svg_4" fill="#263B80" d="m276,246.8l-12.8,0c-0.8,0 -2.4,0.8 -2.4,1.6l-0.8,4l-0.8,-1.6c-3.2,-4 -8.8,-5.6 -15.2,-5.6c-14.4,0 -27.2,11.2 -29.6,26.4c-1.6,8 0.8,15.2 4.8,20s9.6,6.4 16.8,6.4c12,0 18.4,-7.2 18.4,-7.2l-0.8,4c0,1.6 0.8,2.4 2.4,2.4l12,0c1.6,0 3.2,-1.6 4,-3.2l7.2,-44.8c-0.8,-0.8 -2.4,-2.4 -3.2,-2.4m-18.4,25.6c-1.6,7.2 -7.2,12.8 -15.2,12.8c-4,0 -7.2,-1.6 -8.8,-3.2c-1.6,-2.4 -2.4,-5.6 -2.4,-9.6c0.8,-7.2 7.2,-12.8 14.4,-12.8c4,0 6.4,1.6 8.8,3.2c2.4,2.4 3.2,6.4 3.2,9.6"/>
  </g>
  <path id="svg_6" fill="#263B80" d="m345.6,246.8l-13.6,0c-1.6,0 -2.4,0.8 -3.2,1.6l-17.6,27.2l-8,-25.6c-0.8,-1.6 -1.6,-2.4 -4,-2.4l-12.8,0c-1.6,0 -2.4,1.6 -2.4,3.2l14.4,42.4l-13.6,19.2c-0.8,1.6 0,4 1.6,4l12.8,0c1.6,0 2.4,-0.8 3.2,-1.6l44,-63.2c2.4,-2.4 0.8,-4.8 -0.8,-4.8"/>
  <path id="svg_8" fill="#00bf00" d="m92,197.2c-5.6,-6.4 -16,-9.6 -30.4,-9.6l-40,0c-2.4,0 -4.8,2.4 -5.6,4.8l-16,104.8c0,2.4 1.6,4 3.2,4l24.8,0l6.4,-39.2l0,1.6c0.8,-2.4 3.2,-4.8 5.6,-4.8l12,0c23.2,0 40.8,-9.6 46.4,-36c0,-0.8 0,-1.6 0,-2.4c-0.8,0 -0.8,0 0,0c0.8,-10.4 -0.8,-16.8 -6.4,-23.2"/>
  <path id="svg_9" fill="#5f00bf" d="m97.6,220.4l0,0c0,0.8 0,1.6 0,2.4c-5.6,27.2 -23.2,36 -46.4,36l-12,0c-2.4,0 -4.8,2.4 -5.6,4.8l-8,48.8c0,1.6 0.8,3.2 3.2,3.2l20.8,0c2.4,0 4.8,-1.6 4.8,-4l0,-0.8l4,-24.8l0,-1.6c0,-2.4 2.4,-4 4.8,-4l3.2,0c20,0 36,-8 40,-32c1.6,-9.6 0.8,-18.4 -4,-24c-0.8,-1.6 -2.4,-3.2 -4.8,-4"/>
  <path id="svg_10" fill="#232C65" d="m92,218c-0.8,0 -1.6,-0.8 -2.4,-0.8s-1.6,0 -2.4,-0.8c-3.2,-0.8 -6.4,-0.8 -10.4,-0.8l-31.2,0c-0.8,0 -1.6,0 -2.4,0.8c-1.6,0.8 -2.4,2.4 -2.4,4l-6.4,41.6l0,1.6c0.8,-2.4 3.2,-4.8 5.6,-4.8l12,0c23.2,0 40.8,-9.6 46.4,-36c0,-0.8 0,-1.6 0.8,-2.4c-1.6,-0.8 -2.4,-1.6 -4,-1.6c-2.4,-0.8 -2.4,-0.8 -3.2,-0.8"/>
  <g id="svg_11"/>
  <g id="svg_12"/>
  <g id="svg_13"/>
  <g id="svg_14"/>
  <g id="svg_15"/>
  <g id="svg_16"/>
  <g id="svg_17"/>
  <g id="svg_18"/>
  <g id="svg_19"/>
  <g id="svg_20"/>
  <g id="svg_21"/>
  <g id="svg_22"/>
  <g id="svg_23"/>
  <g id="svg_24"/>
  <g id="svg_25"/>
 </g>
</svg>